<svg width="46" height="50" viewBox="0 0 46 50" fill="none" xmlns="http://www.w3.org/2000/svg">
<g id="SVGRepo_iconCarrier">
<g id="Group">
<path id="Vector" d="M24.8729 7.29766C26.8882 7.29766 28.5225 5.66406 28.5225 3.64883C28.5225 1.6335 26.8882 0 24.8729 0C22.8583 0 21.2247 1.6335 21.2247 3.64883C21.2247 5.66406 22.8583 7.29766 24.8729 7.29766Z" fill="#0A96C3"/>
<path id="Vector_2" d="M34.3475 41.0152H25.5831V34.6334H16.8219V28.2503H8.05789V21.8671H0.593628V24.4688H5.45691V30.8519H14.221V37.2351H22.9821V43.617H31.7468V50.0001H42.945V47.3991L34.3475 47.3984V41.0152Z" fill="#0A96C3"/>
<path id="Vector_3" d="M44.6784 17.6995C44.6162 17.2852 44.2303 16.9995 43.8153 17.0616L42.0639 17.3248L41.9143 16.3292C41.8522 15.9242 41.4754 15.6469 41.071 15.7068L40.8876 15.7344C40.8621 15.565 40.8036 15.3977 40.707 15.2439L38.178 11.1999C37.9049 10.7637 37.4893 10.4363 37.0009 10.2733L32.4222 8.13807C30.8737 7.41619 29.0814 7.49383 27.596 8.3159L26.6441 14.1063L23.1159 11.1151L20.2954 12.8912L16.176 10.9577C15.536 10.5992 14.7287 10.8117 14.3485 11.4382L14.2962 11.5228C14.1085 11.8341 14.0507 12.2058 14.1382 12.5581C14.2249 12.9102 14.4501 13.2129 14.7619 13.3991L19.6718 16.329C20.2822 16.6938 21.0267 16.7595 21.692 16.5083L24.5999 14.9418L25.9787 20.5035L21.3955 20.4803C20.6236 20.4781 19.8905 20.8204 19.3979 21.4152C18.9053 22.01 18.7057 22.794 18.8524 23.5526L20.3942 31.4903C20.5649 32.3695 21.3983 32.9581 22.2838 32.8255L22.3501 32.8155C23.2273 32.6843 23.8489 31.8919 23.7677 31.0091L23.2455 25.3216L30.1615 25.4825C31.1543 25.5051 32.1037 25.0766 32.7438 24.3168C33.3838 23.5575 33.6442 22.5484 33.453 21.5732L33.2758 20.6743L31.8535 12.647L35.519 13.1882L38.2004 16.2979C38.0424 16.4589 37.9499 16.679 37.9852 16.9189L38.1348 17.916L36.3841 18.1792C35.9692 18.2413 35.6841 18.6279 35.7469 19.0429L36.4659 23.827C36.5288 24.2412 36.9148 24.527 37.329 24.4649L44.7608 23.3471C45.175 23.285 45.4601 22.8983 45.398 22.4835L44.6784 17.6995ZM26.8247 16.4547C26.8247 16.2049 27.0273 16.003 27.2763 16.003C27.5253 16.003 27.7279 16.2049 27.7279 16.4547C27.7279 16.7045 27.5253 16.9062 27.2763 16.9062C27.0273 16.9062 26.8247 16.7045 26.8247 16.4547ZM27.7575 19.4353C27.5084 19.4353 27.3059 19.2336 27.3059 18.9838C27.3059 18.734 27.5084 18.5322 27.7575 18.5322C28.0066 18.5322 28.2091 18.734 28.2091 18.9838C28.2091 19.2336 28.0067 19.4353 27.7575 19.4353ZM38.6981 16.8597C39.1208 17.2704 39.7707 17.348 40.2759 17.0276L40.3056 17.0086C40.5187 16.8738 40.6768 16.6847 40.777 16.473L41.1778 16.4124L41.2088 16.435L41.3584 17.4313L38.8408 17.8095L38.6981 16.8597Z" fill="#0A96C3"/>
<path id="Vector_4" d="M36.4444 37.5817C37.0583 38.2231 38.0723 38.2619 38.7335 37.6684L38.7808 37.6268C39.4399 37.0355 39.5119 36.0271 38.9445 35.3462L35.1651 30.2748L33.9598 24.4031C33.878 24.5209 33.794 24.6375 33.7009 24.7482C32.8019 25.8158 31.4848 26.4283 30.0884 26.4283L29.4462 26.4134L30.8553 30.9944C31.1813 31.669 31.6054 32.2928 32.1125 32.8467L36.4444 37.5817Z" fill="#0A96C3"/>
<path id="Vector_5" d="M24.7567 11.6112L25.9217 12.2096L26.4036 10.9197L25.7749 9.57764L24.2472 10.5231L24.7567 11.6112Z" fill="#0A96C3"/>
</g>
</g>
</svg>
