<svg width="41" height="40" viewBox="0 0 41 40" fill="none" xmlns="http://www.w3.org/2000/svg">
<g id="SVGRepo_iconCarrier">
<path id="Vector" d="M20.8333 0C9.83336 0 0.833374 8.97999 0.833374 20.04C0.833374 30.04 8.15336 38.34 17.7134 39.84V25.84H12.6334V20.04H17.7134V15.62C17.7134 10.6 20.6933 7.83999 25.2733 7.83999C27.4533 7.83999 29.7333 8.21999 29.7333 8.21999V13.16H27.2133C24.7333 13.16 23.9533 14.7 23.9533 16.28V20.04H29.5133L28.6133 25.84H23.9533V39.84C28.6661 39.0956 32.9577 36.691 36.0531 33.06C39.1485 29.4292 40.8441 24.8112 40.8333 20.04C40.8333 8.97999 31.8333 0 20.8333 0Z" fill="black"/>
</g>
</svg>
