<svg width="37" height="38" viewBox="0 0 37 38" fill="none" xmlns="http://www.w3.org/2000/svg">
<g id="SVGRepo_iconCarrier">
<path id="Vector" fill-rule="evenodd" clip-rule="evenodd" d="M18.5 28.92C24.0229 28.92 28.5 24.4428 28.5 18.92C28.5 13.3971 24.0229 8.91998 18.5 8.91998C12.9772 8.91998 8.50003 13.3971 8.50003 18.92C8.50003 24.4428 12.9772 28.92 18.5 28.92ZM18.5 25.5866C22.1819 25.5866 25.1667 22.6018 25.1667 18.92C25.1667 15.2381 22.1819 12.2533 18.5 12.2533C14.8181 12.2533 11.8334 15.2381 11.8334 18.92C11.8334 22.6018 14.8181 25.5866 18.5 25.5866Z" fill="#0F0F0F"/>
<path id="Vector_2" d="M28.5 7.25336C27.5795 7.25336 26.8333 7.99956 26.8333 8.92002C26.8333 9.84049 27.5795 10.5867 28.5 10.5867C29.4205 10.5867 30.1667 9.84049 30.1667 8.92002C30.1667 7.99956 29.4205 7.25336 28.5 7.25336Z" fill="#0F0F0F"/>
<path id="Vector_3" fill-rule="evenodd" clip-rule="evenodd" d="M1.25662 6.04677C0.166687 8.18589 0.166687 10.9862 0.166687 16.5867V21.2533C0.166687 26.8538 0.166687 29.6542 1.25662 31.7932C2.21535 33.6748 3.74515 35.2047 5.62679 36.1633C7.7659 37.2533 10.5662 37.2533 16.1667 37.2533H20.8334C26.4339 37.2533 29.2342 37.2533 31.3732 36.1633C33.2549 35.2047 34.7847 33.6748 35.7434 31.7932C36.8334 29.6542 36.8334 26.8538 36.8334 21.2533V16.5867C36.8334 10.9862 36.8334 8.18589 35.7434 6.04677C34.7847 4.16514 33.2549 2.63534 31.3732 1.6766C29.2342 0.58667 26.4339 0.58667 20.8334 0.58667H16.1667C10.5662 0.58667 7.7659 0.58667 5.62679 1.6766C3.74515 2.63534 2.21535 4.16514 1.25662 6.04677ZM20.8334 3.92H16.1667C13.3114 3.92 11.3704 3.9226 9.87015 4.04517C8.40875 4.16457 7.66142 4.38099 7.14009 4.64662C5.88567 5.28579 4.8658 6.30565 4.22664 7.56007C3.961 8.0814 3.74459 8.82874 3.62519 10.2901C3.50262 11.7904 3.50002 13.7314 3.50002 16.5867V21.2533C3.50002 24.1087 3.50262 26.0495 3.62519 27.5498C3.74459 29.0113 3.961 29.7587 4.22664 30.28C4.8658 31.5343 5.88567 32.5542 7.14009 33.1933C7.66142 33.459 8.40875 33.6755 9.87015 33.7948C11.3704 33.9173 13.3114 33.92 16.1667 33.92H20.8334C23.6887 33.92 25.6295 33.9173 27.1299 33.7948C28.5914 33.6755 29.3387 33.459 29.86 33.1933C31.1144 32.5542 32.1342 31.5343 32.7734 30.28C33.039 29.7587 33.2555 29.0113 33.3749 27.5498C33.4974 26.0495 33.5 24.1087 33.5 21.2533V16.5867C33.5 13.7314 33.4974 11.7904 33.3749 10.2901C33.2555 8.82874 33.039 8.0814 32.7734 7.56007C32.1342 6.30565 31.1144 5.28579 29.86 4.64662C29.3387 4.38099 28.5914 4.16457 27.1299 4.04517C25.6295 3.9226 23.6887 3.92 20.8334 3.92Z" fill="#0F0F0F"/>
</g>
</svg>
