<svg width="41" height="33" viewBox="0 0 41 33" fill="none" xmlns="http://www.w3.org/2000/svg">
<g id="SVGRepo_iconCarrier">
<g id="Page-1">
<g id="Dribbble-Light-Preview">
<g id="icons">
<path id="twitter-[#154]" fillRule="evenodd" clipRule="evenodd" d="M13.4134 32.9198C28.5074 32.9198 36.7634 20.6069 36.7634 9.93056C36.7634 9.58006 36.7634 9.2322 36.7394 8.88564C38.3454 7.74356 39.7314 6.32554 40.8334 4.70302C39.3374 5.35676 37.7474 5.78548 36.1214 5.9745C37.8334 4.96436 39.1154 3.37738 39.7294 1.50478C38.1174 2.446 36.3554 3.11027 34.5174 3.46669C31.4094 0.213752 26.2114 0.0561459 22.9054 3.11611C20.7754 5.08913 19.8694 8.03087 20.5314 10.8368C13.9334 10.5099 7.78537 7.44216 3.61737 2.3954C1.43937 6.08742 2.55337 10.8088 6.15937 13.1796C4.85337 13.1422 3.57537 12.796 2.43337 12.1698V12.2724C2.43537 16.118 5.18937 19.4293 9.01737 20.1913C7.80937 20.5162 6.54137 20.5633 5.31337 20.329C6.38737 23.6213 9.46937 25.8763 12.9794 25.9413C10.0734 28.19 6.48337 29.411 2.78737 29.4071C2.13537 29.4051 1.48337 29.3677 0.833374 29.2909C4.58737 31.6617 8.95337 32.9199 13.4134 32.914" fill="black"/>
</g>
</g>
</g>
</g>
</svg>
